<?xml version="1.0" encoding="UTF-8"?>
<svg id="Layer_2" data-name="Layer 2" xmlns="http://www.w3.org/2000/svg" viewBox="0 0 339 133.22">
  <defs>
    <style>
      .cls-1 {
        fill: #2b2c20;
      }

      .cls-2 {
        fill: #2a463d;
      }

      .cls-3 {
        fill: #a2d4bc;
      }
    </style>
  </defs>
  <g id="Layer_1-2" data-name="Layer 1">
    <path class="cls-1" d="M307.23,119.76v9.17c0,2.35-1.91,4.29-4.31,4.29H34.62c-2.22,0-4.04-1.76-4.08-4.02l-.14-10.3c-.05-2.35-2.04-4.29-4.4-4.29h-8.03c-2.31,0-4.22-1.9-4.22-4.2v-20.23c0-1.54-.64-2.98-1.77-4.06l-7.85-7.27c-5.31-7.68-5.49-17.79-.64-27.14,1.22-2.35,4.04-5.42,6.26-6.82l1.18-.77c1.72-1.08,2.81-3.03,2.81-5.06v-17.43c0-2.21,1.81-4.06,4.08-4.06h9.03c2.5,0,4.54-2.03,4.54-4.52V3.52c0-1.94,1.59-3.52,3.54-3.52h266.25c2.22,0,4.04,1.72,4.17,3.88l.59,9.98c.18,2.66,2.36,4.74,5.04,4.79l7.89.09c2.18.05,3.95,1.81,3.95,3.97v12.37c0,4.15,1.9,8.13,5.22,10.7l2.68,2.08c11.84,9.35,10.8,27.55-2,35.54l-1.77,1.08c-2.54,1.58-4.08,4.34-4.08,7.36v17.3c0,2.17-1.72,3.93-3.86,4.02l-8.57.36c-2.63.09-3.22,3.7-3.22,6.23Z"/>
    <path class="cls-3" d="M303.21,118.2v8.73c0,2.25-1.86,4.07-4.16,4.07H38.67c-2.18,0-3.92-1.7-4-3.83l-.12-9.8c-.04-2.25-1.98-4.11-4.28-4.11h-7.8c-2.26,0-4.12-1.78-4.12-4.03v-19.28c0-1.46-.61-2.84-1.7-3.87l-7.63-6.95c-5.17-7.31-5.33-16.95-.61-25.87,1.17-2.21,3.92-5.17,6.1-6.52l1.17-.71c1.7-1.07,2.71-2.88,2.71-4.82v-16.63c0-2.13,1.78-3.87,3.96-3.87h8.77c2.42,0,4.4-1.94,4.4-4.31V7.36c0-1.86,1.53-3.36,3.43-3.36h258.36c2.14,0,3.92,1.62,4.04,3.71l.57,9.52c.16,2.53,2.26,4.5,4.89,4.54l7.67.12c2.1.04,3.84,1.7,3.84,3.79v11.81c0,3.99,1.86,7.74,5.05,10.23l2.58,2.01c11.51,8.93,10.5,26.27-1.94,33.89l-1.7,1.03c-2.46,1.5-3.96,4.15-3.96,6.99v16.47c0,2.05-1.66,3.75-3.76,3.83l-8.32.36c-2.51.04-3.07,3.48-3.07,5.89Z"/>
    <path class="cls-2" d="M294.32,111.69v7.71c0,1.97-1.72,3.61-3.89,3.61H48.25c-2.01,0-3.64-1.48-3.69-3.38l-.12-8.66c-.04-1.97-1.84-3.61-3.97-3.61h-7.25c-2.09,0-3.81-1.6-3.81-3.53v-17.01c0-1.29-.57-2.51-1.6-3.42l-7.08-6.11c-4.79-6.45-4.95-14.96-.57-22.82,1.11-1.97,3.64-4.56,5.65-5.73l1.06-.65c1.56-.91,2.54-2.54,2.54-4.25v-14.65c0-1.86,1.64-3.42,3.69-3.42h8.15c2.25,0,4.1-1.71,4.1-3.8v-8.01c0-1.63,1.43-2.96,3.19-2.96h240.34c2.01,0,3.64,1.44,3.77,3.27l.53,8.39c.16,2.24,2.13,3.99,4.55,4.02l7.12.08c1.97.04,3.56,1.52,3.56,3.34v10.4c0,3.49,1.72,6.83,4.71,9l2.42,1.75c10.69,7.86,9.75,23.16-1.8,29.88l-1.6.91c-2.29,1.33-3.69,3.64-3.69,6.19v14.54c0,1.82-1.56,3.3-3.48,3.38l-7.74.3c-2.38.08-2.91,3.11-2.91,5.24Z"/>
  </g>
</svg>